<svg width="71" height="70" viewBox="0 0 71 70" fill="none" xmlns="http://www.w3.org/2000/svg">
<path d="M16.6653 32.0687C16.3433 32.0827 15.9512 32.2367 15.7272 32.4608C11.7794 36.3735 7.85265 40.3073 3.92586 44.2411L3.92459 44.2424L44.4886 3.39409C44.3044 3.53357 44.1292 3.68699 43.962 3.85526L43.9599 3.85738L43.9597 3.85759C36.6564 11.1881 29.3403 18.4983 22.0116 25.801C22.0116 25.8011 22.0115 25.8011 22.0114 25.8012C21.8075 26.0044 21.6035 26.2076 21.3996 26.4108C21.4092 26.7003 21.4137 26.9949 21.4152 27.2886C21.4152 27.2887 21.4152 27.2889 21.4152 27.2891C21.4173 27.695 21.4137 28.0993 21.4103 28.4862C21.4078 28.7726 21.4054 29.0495 21.4054 29.3106V30.4221V30.4222V31.4653C21.3179 31.6079 21.204 31.7223 21.0612 31.8106M16.6653 32.0687C17.3544 32.0384 18.0462 32.0429 18.7374 32.0475C19.1626 32.0503 19.5875 32.0531 20.0115 32.0477C20.4622 32.0423 20.8074 31.9675 21.0612 31.8106M16.6653 32.0687L16.6541 31.8138M16.6653 32.0687L16.6542 31.8138M21.0612 31.8106H20.0086H20.0085H18.9054C18.6115 31.8106 18.3173 31.8117 18.0237 31.8129C17.5654 31.8146 17.1081 31.8164 16.6542 31.8138M21.0612 31.8106L16.0044 31.8067C16.22 31.8104 16.4367 31.8126 16.6541 31.8138M16.5553 29.5712C16.5558 29.5711 16.5562 29.5711 16.5567 29.5711L16.6542 31.8138M16.5553 29.5712L16.6541 31.8138M16.5553 29.5712C16.3316 29.581 16.097 29.6127 15.8594 29.6672C15.8593 29.6673 15.8591 29.6673 15.8589 29.6674C15.4351 29.7647 15.0021 29.9346 14.6054 30.1821M16.6542 31.8138C16.6542 31.8138 16.6541 31.8138 16.6541 31.8138M60.3775 31.827C60.3776 31.8269 60.3796 31.825 60.3836 31.8218C60.3795 31.8255 60.3775 31.8272 60.3775 31.827ZM61.4364 31.6962C61.4367 31.6963 61.4369 31.6964 61.4372 31.6965C61.4373 31.6965 61.4374 31.6966 61.4375 31.6966L61.4364 31.6962Z" fill="#115C07" stroke="#115C07" stroke-width="5"/>
<path d="M40.1788 19.4411C40.1718 18.6291 40.6128 18.09 41.2849 17.957C41.9359 17.824 42.6009 18.202 42.8109 18.9161C43.217 20.2672 43.581 21.6252 43.959 22.9833C45.0231 26.7915 46.0871 30.6067 47.1512 34.4149C47.1862 34.5479 47.2212 34.6809 47.2562 34.8139C47.4452 35.626 47.0742 36.312 46.3251 36.536C45.5971 36.76 44.869 36.368 44.631 35.563C44.253 34.2959 43.924 33.0218 43.567 31.7548C42.4819 27.8556 41.3969 23.9564 40.3188 20.0571C40.2558 19.8121 40.2068 19.5671 40.1788 19.4411Z" fill="#115C07"/>
<path d="M55.8058 25.9788C55.8058 28.268 53.9717 30.0951 51.6826 30.0811C49.4495 30.0671 47.6084 28.219 47.6084 25.9858C47.6084 23.7247 49.4775 21.8696 51.7456 21.8836C53.9997 21.8906 55.8058 23.7177 55.8058 25.9788ZM51.6826 24.6138C50.9616 24.6348 50.3455 25.2578 50.3455 25.9788C50.3455 26.7209 50.9966 27.3579 51.7456 27.3439C52.5087 27.3229 53.0967 26.6859 53.0617 25.9158C53.0407 25.1738 52.4177 24.5928 51.6826 24.6138Z" fill="#115C07"/>
<path d="M39.9632 26.4537C39.9632 28.7288 38.1641 30.5419 35.896 30.5559C33.6279 30.5699 31.7448 28.6868 31.7658 26.4257C31.7938 24.1716 33.6349 22.3585 35.882 22.3655C38.1641 22.3725 39.9632 24.1786 39.9632 26.4537ZM37.2261 26.4607C37.2261 25.7047 36.6521 25.1166 35.896 25.1026C35.147 25.0956 34.5309 25.6767 34.5099 26.4117C34.4819 27.1678 35.119 27.8118 35.889 27.8048C36.6381 27.8048 37.2261 27.2168 37.2261 26.4607Z" fill="#115C07"/>
<path d="M26.3045 45.1867C26.0245 45.6627 25.8845 46.0408 25.6325 46.2998C24.1554 47.8118 22.6643 49.3099 21.1523 50.787C20.5082 51.417 19.7102 51.417 19.1501 50.85C18.5901 50.283 18.6041 49.4919 19.2342 48.8479C20.7182 47.3428 22.2163 45.8517 23.7144 44.3607C24.1764 43.9056 24.7504 43.6746 25.3175 44.0456C25.7165 44.3117 25.9685 44.7807 26.3045 45.1867Z" fill="#115C07"/>
<path d="M15.8106 47.2009C15.3905 46.8439 14.9285 46.5919 14.6625 46.1999C14.3195 45.7028 14.4805 45.1358 14.8865 44.7018C15.4115 44.1418 15.9716 43.6027 16.5176 43.0567C17.4627 42.1046 18.4077 41.1596 19.3598 40.2145C20.0668 39.5145 20.8718 39.4515 21.4599 40.0395C22.0619 40.6346 22.0129 41.4186 21.2989 42.1396C19.8778 43.5747 18.4497 45.0098 17.0006 46.4239C16.7066 46.7039 16.3076 46.8789 15.8106 47.2009Z" fill="#115C07"/>
<path d="M24.2606 55.6515C23.8965 55.3434 23.4275 55.0914 23.1615 54.7064C22.8045 54.1744 23.0005 53.6074 23.4415 53.1593C24.7016 51.8853 25.9757 50.6182 27.2427 49.3511C27.5297 49.0641 27.8097 48.7631 28.1248 48.4971C28.7198 48 29.4478 48.028 29.9729 48.5461C30.4839 49.0571 30.5609 49.8481 30.0359 50.3942C28.4678 52.0113 26.8717 53.5933 25.2616 55.1684C25.0516 55.3714 24.7086 55.4414 24.2606 55.6515Z" fill="#115C07"/>
<path d="M36.8266 46.0327C36.6306 46.2777 36.3996 46.8027 36.0216 46.9707C35.6366 47.1387 35.0275 47.0827 34.6425 46.8727C34.1665 46.6137 33.7885 46.1377 33.4315 45.6967C32.9834 45.1436 33.0884 44.3806 33.5855 43.9116C34.0615 43.4705 34.8245 43.3935 35.3286 43.8346C35.9376 44.3876 36.6866 44.8636 36.8266 46.0327Z" fill="#115C07"/>
<path d="M30.344 42.1242C29.3919 41.9842 27.9918 40.6611 28.0898 39.8351C28.1388 39.4221 28.4399 38.96 28.7619 38.673C29.1609 38.316 29.7279 38.358 30.155 38.694C30.596 39.044 31.079 39.4221 31.331 39.8981C31.527 40.2761 31.541 40.8851 31.373 41.2772C31.212 41.6482 30.701 41.8512 30.344 42.1242Z" fill="#115C07"/>
<path d="M26.4101 35.6443C26.2351 35.8683 26.0181 36.4004 25.633 36.5684C25.248 36.7364 24.66 36.6664 24.247 36.4844C23.8619 36.3164 23.5539 35.9033 23.2809 35.5533C22.8539 35.0003 22.9379 34.2933 23.4139 33.8172C23.9039 33.3202 24.66 33.2502 25.206 33.7122C25.731 34.1602 26.3261 34.5873 26.4101 35.6443Z" fill="#115C07"/>
<path d="M58.0374 37.1367C58.0234 37.8858 57.4284 38.4668 56.6794 38.4598C55.9023 38.4528 55.3073 37.8298 55.3423 37.0457C55.3703 36.2967 55.9793 35.7367 56.7354 35.7577C57.4774 35.7857 58.0514 36.3877 58.0374 37.1367Z" fill="#115C07"/>
</svg>
